# xmcd
#
# Track frame offsets: 
#        150
#        20782
#        39833
#        57065
#        73493
#        91041
#        110743
#        131281
#        147105
#        169292
#        183646
#        199257
#
# Disc length: 2993 seconds
#
# Revision: 0
# Processed by: cddbd v1.5.2PL0 Copyright (c) Steve Scherf et al.
# Submitted via: ExactAudioCopyFreeDBPlugin 1.0
#
DISCID=ad0baf0c
DTITLE=Bianchi - The Piano Session
DYEAR=1900
DGENRE=Blues
TTITLE0=Tears are the devil's Wine
TTITLE1=Boogie Man
TTITLE2=New Revolution
TTITLE3=The Way you Groove
TTITLE4=You've got to choose
TTITLE5=Feeling alright
TTITLE6=Good for everyone
TTITLE7=Tap Tap
TTITLE8=Turn the Page
TTITLE9=Motorway
TTITLE10=Still i wonder
TTITLE11=Average Guy
EXTD=
EXTT0=
EXTT1=
EXTT2=
EXTT3=
EXTT4=
EXTT5=
EXTT6=
EXTT7=
EXTT8=
EXTT9=
EXTT10=
EXTT11=
PLAYORDER=
